Poster:
 
http://www.hotimg.com/direct/PrX7muj.jpg

Screenshots:
 
http://www.hotimg.com/direct/a8seHaH.png
 
http://www.hotimg.com/direct/DmBxtsH.png
 
http://www.hotimg.com/direct/XA2cnFn.png
 
http://www.hotimg.com/direct/VkjJncZ.png

Information:

The Double (2011) DVDSCR XVID-WBZ
 
http://www.imdb.com/title/tt1646980/

Title	The Double 2011
Genre: Crime, Drama, Mystery, Thriller
Rating: 6.0/10 (354 Votes)
Release Date: 28 October 2011


Synopsis :
Story kicks off with the mysterious murder of a senator bearing the marks of a Soviet assassin, who was long thought to be dead. To hunt down the killer, a retired CIA operative, who spent his career going toe-to-toe with his Soviet nemesis, is teamed with a young FBI agent.

Format : AVI
Format/Info : Audio Video Interleave
File size : 714 MiB
Duration : 1h 34mn
Overall bit rate : 1 054 Kbps
Writing application : Lavf52.39.1

Video
ID : 0
Format : xvid
Codec ID : xvid
Duration : 1h 34mn
Bit rate : 977 Kbps
Width : 704 pixels
Height : 320 pixels
Display aspect ratio : 2.2:1
Frame rate : 23.976 fps
Bits/(Pixel*Frame) : 0.181
Stream size : 662 MiB (93%)

Audio
ID : 1
Format : MPEG Audio
Format version : Version 1
Format profile : Layer 3
Mode : Joint stereo
Mode extension : MS Stereo
Codec ID : 55
Codec ID/Hint : MP3
Duration : 1h 34mn
Bit rate mode : Constant
Bit rate : 64.0 Kbps
Channel(s) : 2 channels
Sampling rate : 48.0 KHz
Compression mode : Lossy
Stream size : 43.3 MiB (6%)
Alignment : Aligned on interleaves
Interleave, duration : 24 ms (0.58 video frame)
Interleave, preload duration : 24 ms